<mxfile host="app.diagrams.net" modified="2023-06-12T13:21:18.439Z" agent="Mozilla/5.0 (Windows NT 10.0; Win64; x64) AppleWebKit/537.36 (KHTML, like Gecko) Chrome/114.0.0.0 Safari/537.36" etag="9KI72uUSTCQ6dUb6b8cr" version="21.3.8" type="device">
  <diagram id="C5RBs43oDa-KdzZeNtuy" name="Page-1">
    <mxGraphModel dx="1434" dy="764" grid="1" gridSize="10" guides="1" tooltips="1" connect="1" arrows="1" fold="1" page="1" pageScale="1" pageWidth="827" pageHeight="1169" math="0" shadow="0">
      <root>
        <mxCell id="WIyWlLk6GJQsqaUBKTNV-0" />
        <mxCell id="WIyWlLk6GJQsqaUBKTNV-1" parent="WIyWlLk6GJQsqaUBKTNV-0" />
        <mxCell id="uX1SD6KOtz-bFzefyJ_t-4" style="edgeStyle=orthogonalEdgeStyle;rounded=0;orthogonalLoop=1;jettySize=auto;html=1;entryX=0.5;entryY=0;entryDx=0;entryDy=0;" edge="1" parent="WIyWlLk6GJQsqaUBKTNV-1" source="uX1SD6KOtz-bFzefyJ_t-0" target="uX1SD6KOtz-bFzefyJ_t-2">
          <mxGeometry relative="1" as="geometry" />
        </mxCell>
        <mxCell id="uX1SD6KOtz-bFzefyJ_t-0" value="Start" style="ellipse;whiteSpace=wrap;html=1;" vertex="1" parent="WIyWlLk6GJQsqaUBKTNV-1">
          <mxGeometry x="354" y="40" width="120" height="80" as="geometry" />
        </mxCell>
        <mxCell id="uX1SD6KOtz-bFzefyJ_t-1" value="End" style="ellipse;whiteSpace=wrap;html=1;" vertex="1" parent="WIyWlLk6GJQsqaUBKTNV-1">
          <mxGeometry x="60" y="600" width="120" height="80" as="geometry" />
        </mxCell>
        <mxCell id="uX1SD6KOtz-bFzefyJ_t-6" style="edgeStyle=orthogonalEdgeStyle;rounded=0;orthogonalLoop=1;jettySize=auto;html=1;entryX=0.5;entryY=0;entryDx=0;entryDy=0;" edge="1" parent="WIyWlLk6GJQsqaUBKTNV-1" source="uX1SD6KOtz-bFzefyJ_t-2" target="uX1SD6KOtz-bFzefyJ_t-5">
          <mxGeometry relative="1" as="geometry" />
        </mxCell>
        <mxCell id="uX1SD6KOtz-bFzefyJ_t-2" value="Input &quot;Nama dan &quot;Nilai Mahasiswa&quot;" style="shape=parallelogram;perimeter=parallelogramPerimeter;whiteSpace=wrap;html=1;fixedSize=1;" vertex="1" parent="WIyWlLk6GJQsqaUBKTNV-1">
          <mxGeometry x="331" y="200" width="166" height="60" as="geometry" />
        </mxCell>
        <mxCell id="uX1SD6KOtz-bFzefyJ_t-9" style="edgeStyle=orthogonalEdgeStyle;rounded=0;orthogonalLoop=1;jettySize=auto;html=1;entryX=0.5;entryY=0;entryDx=0;entryDy=0;" edge="1" parent="WIyWlLk6GJQsqaUBKTNV-1" source="uX1SD6KOtz-bFzefyJ_t-5" target="uX1SD6KOtz-bFzefyJ_t-8">
          <mxGeometry relative="1" as="geometry" />
        </mxCell>
        <mxCell id="uX1SD6KOtz-bFzefyJ_t-5" value="Simpan &quot;Nama&quot; dan &quot;Nilai Mahasiswa&quot;" style="rounded=0;whiteSpace=wrap;html=1;" vertex="1" parent="WIyWlLk6GJQsqaUBKTNV-1">
          <mxGeometry x="354" y="320" width="120" height="60" as="geometry" />
        </mxCell>
        <mxCell id="uX1SD6KOtz-bFzefyJ_t-11" value="True" style="edgeStyle=orthogonalEdgeStyle;rounded=0;orthogonalLoop=1;jettySize=auto;html=1;entryX=0.5;entryY=0;entryDx=0;entryDy=0;" edge="1" parent="WIyWlLk6GJQsqaUBKTNV-1" source="uX1SD6KOtz-bFzefyJ_t-8" target="uX1SD6KOtz-bFzefyJ_t-10">
          <mxGeometry relative="1" as="geometry" />
        </mxCell>
        <mxCell id="uX1SD6KOtz-bFzefyJ_t-15" value="False" style="edgeStyle=orthogonalEdgeStyle;rounded=0;orthogonalLoop=1;jettySize=auto;html=1;entryX=0.5;entryY=0;entryDx=0;entryDy=0;" edge="1" parent="WIyWlLk6GJQsqaUBKTNV-1" source="uX1SD6KOtz-bFzefyJ_t-8" target="uX1SD6KOtz-bFzefyJ_t-14">
          <mxGeometry relative="1" as="geometry" />
        </mxCell>
        <mxCell id="uX1SD6KOtz-bFzefyJ_t-8" value="if &quot;Nilai Mahasiswa&quot; &amp;gt;=60" style="rhombus;whiteSpace=wrap;html=1;" vertex="1" parent="WIyWlLk6GJQsqaUBKTNV-1">
          <mxGeometry x="369" y="400" width="90" height="100" as="geometry" />
        </mxCell>
        <mxCell id="uX1SD6KOtz-bFzefyJ_t-18" style="edgeStyle=orthogonalEdgeStyle;rounded=0;orthogonalLoop=1;jettySize=auto;html=1;entryX=0.5;entryY=0;entryDx=0;entryDy=0;" edge="1" parent="WIyWlLk6GJQsqaUBKTNV-1" source="uX1SD6KOtz-bFzefyJ_t-10" target="uX1SD6KOtz-bFzefyJ_t-17">
          <mxGeometry relative="1" as="geometry" />
        </mxCell>
        <mxCell id="uX1SD6KOtz-bFzefyJ_t-10" value="Simpan &quot;Keterangan Lulus&quot;" style="rounded=0;whiteSpace=wrap;html=1;" vertex="1" parent="WIyWlLk6GJQsqaUBKTNV-1">
          <mxGeometry x="234" y="500" width="120" height="60" as="geometry" />
        </mxCell>
        <mxCell id="uX1SD6KOtz-bFzefyJ_t-19" style="edgeStyle=orthogonalEdgeStyle;rounded=0;orthogonalLoop=1;jettySize=auto;html=1;entryX=0.5;entryY=0;entryDx=0;entryDy=0;" edge="1" parent="WIyWlLk6GJQsqaUBKTNV-1" source="uX1SD6KOtz-bFzefyJ_t-14" target="uX1SD6KOtz-bFzefyJ_t-17">
          <mxGeometry relative="1" as="geometry" />
        </mxCell>
        <mxCell id="uX1SD6KOtz-bFzefyJ_t-14" value="Simpan &quot;Keterangan Tidak Lulus&quot;" style="rounded=0;whiteSpace=wrap;html=1;" vertex="1" parent="WIyWlLk6GJQsqaUBKTNV-1">
          <mxGeometry x="480" y="500" width="120" height="60" as="geometry" />
        </mxCell>
        <mxCell id="uX1SD6KOtz-bFzefyJ_t-20" style="edgeStyle=orthogonalEdgeStyle;rounded=0;orthogonalLoop=1;jettySize=auto;html=1;entryX=1;entryY=0.5;entryDx=0;entryDy=0;" edge="1" parent="WIyWlLk6GJQsqaUBKTNV-1" source="uX1SD6KOtz-bFzefyJ_t-17" target="uX1SD6KOtz-bFzefyJ_t-1">
          <mxGeometry relative="1" as="geometry" />
        </mxCell>
        <mxCell id="uX1SD6KOtz-bFzefyJ_t-17" value="Output &quot;Nama dan &quot;Nilai Mahasiswa&quot;" style="shape=parallelogram;perimeter=parallelogramPerimeter;whiteSpace=wrap;html=1;fixedSize=1;" vertex="1" parent="WIyWlLk6GJQsqaUBKTNV-1">
          <mxGeometry x="341" y="610" width="166" height="60" as="geometry" />
        </mxCell>
      </root>
    </mxGraphModel>
  </diagram>
</mxfile>
